<svg width="39" height="26" viewBox="0 0 39 26" fill="none" xmlns="http://www.w3.org/2000/svg">
<path d="M10.1149 8.60589C9.77657 9.00628 9.2352 9.32208 8.69383 9.27697C8.62615 8.7356 8.8912 8.16039 9.20136 7.80511C9.53972 7.39344 10.1319 7.10019 10.6112 7.07764C10.6676 7.64157 10.4477 8.19422 10.1149 8.60589ZM10.6056 9.38412C9.82169 9.339 9.15061 9.82962 8.77842 9.82962C8.40058 9.82962 7.83101 9.40667 7.21069 9.41795C6.40427 9.42923 5.65424 9.88602 5.24257 10.6135C4.39667 12.0684 5.02263 14.2226 5.84033 15.4069C6.24073 15.9934 6.72007 16.6363 7.35167 16.6137C7.94944 16.5912 8.18629 16.2246 8.90812 16.2246C9.63559 16.2246 9.84425 16.6137 10.4758 16.6024C11.13 16.5912 11.5417 16.016 11.9421 15.4295C12.3989 14.764 12.585 14.1155 12.5962 14.0817C12.585 14.0704 11.333 13.591 11.3217 12.1474C11.3105 10.9406 12.3086 10.3654 12.3537 10.3315C11.7898 9.4969 10.9101 9.40667 10.6056 9.38412ZM15.1339 7.74872V16.5404H16.4986V13.5347H18.3878C20.1134 13.5347 21.3259 12.3504 21.3259 10.636C21.3259 8.92169 20.136 7.74872 18.4329 7.74872H15.1339ZM16.4986 8.89914H18.072C19.2563 8.89914 19.933 9.53074 19.933 10.6417C19.933 11.7526 19.2563 12.3899 18.0664 12.3899H16.4986V8.89914ZM23.8185 16.6081C24.6756 16.6081 25.4708 16.1739 25.8317 15.4859H25.8599V16.5404H27.1231V12.1643C27.1231 10.8955 26.108 10.0778 24.5459 10.0778C23.0966 10.0778 22.0252 10.9067 21.9857 12.0459H23.2151C23.3166 11.5045 23.8185 11.1492 24.5065 11.1492C25.3411 11.1492 25.8091 11.5383 25.8091 12.2545V12.7395L24.1061 12.841C22.5214 12.9369 21.6642 13.5854 21.6642 14.7133C21.6642 15.8524 22.5496 16.6081 23.8185 16.6081ZM24.185 15.5648C23.4575 15.5648 22.9951 15.2152 22.9951 14.6794C22.9951 14.1268 23.4406 13.8053 24.2922 13.7546L25.8091 13.6587V14.155C25.8091 14.9783 25.1099 15.5648 24.185 15.5648ZM28.8093 18.9315C30.1401 18.9315 30.7661 18.4239 31.3131 16.8844L33.7098 10.1623H32.3225L30.7153 15.3562H30.6871L29.0799 10.1623H27.6532L29.9653 16.563L29.8412 16.9521C29.6326 17.6119 29.2942 17.8656 28.6908 17.8656C28.5837 17.8656 28.375 17.8544 28.2904 17.8431V18.8976C28.3694 18.9202 28.7077 18.9315 28.8093 18.9315Z" fill="#302A18"/>
</svg>
