<svg width="38" height="26" viewBox="0 0 38 26" fill="none" xmlns="http://www.w3.org/2000/svg">
<path d="M18.1501 12.8734V16.2339H17.084V7.93501H19.9114C20.2489 7.92796 20.5845 7.98781 20.8987 8.11112C21.2129 8.23443 21.4996 8.41875 21.7423 8.65345C21.9874 8.8739 22.1824 9.14425 22.3143 9.44634C22.4462 9.74843 22.512 10.0753 22.5071 10.4049C22.5141 10.7362 22.4494 11.0652 22.3174 11.3692C22.1854 11.6732 21.9892 11.9451 21.7423 12.1662C21.2479 12.6377 20.6376 12.8732 19.9114 12.8727H18.1501V12.8734ZM18.1501 8.95672V11.8537H19.9379C20.1339 11.8595 20.3289 11.8243 20.5106 11.7504C20.6922 11.6765 20.8564 11.5656 20.9927 11.4246C21.1283 11.2928 21.2361 11.1351 21.3096 10.9609C21.3832 10.7868 21.4212 10.5996 21.4212 10.4105C21.4212 10.2214 21.3832 10.0342 21.3096 9.86004C21.2361 9.68586 21.1283 9.5282 20.9927 9.39639C20.8581 9.25244 20.6945 9.13874 20.5126 9.06283C20.3308 8.98691 20.1349 8.95052 19.9379 8.95606H18.1501V8.95672ZM24.9637 10.3704C25.7517 10.3704 26.3736 10.581 26.8296 11.0021C27.2857 11.4233 27.5134 12.0007 27.513 12.7343V16.2339H26.4933V15.4459H26.4469C26.0055 16.0948 25.4184 16.4193 24.6856 16.4193C24.0601 16.4193 23.5367 16.2339 23.1156 15.863C22.9135 15.6929 22.7519 15.4797 22.6426 15.2392C22.5333 14.9986 22.4791 14.7367 22.4839 14.4725C22.4839 13.885 22.7059 13.4177 23.15 13.0707C23.5941 12.7237 24.187 12.5498 24.9286 12.5489C25.5616 12.5489 26.083 12.6648 26.4926 12.8966V12.6529C26.4938 12.4728 26.4549 12.2947 26.3788 12.1315C26.3026 11.9683 26.1911 11.8241 26.0523 11.7093C25.7704 11.455 25.403 11.3162 25.0233 11.3206C24.4278 11.3206 23.9565 11.5718 23.6096 12.0742L22.6706 11.4829C23.1871 10.7412 23.9515 10.3704 24.9637 10.3704ZM23.5844 14.4957C23.5837 14.6314 23.6154 14.7652 23.6769 14.8862C23.7384 15.0071 23.8279 15.1116 23.938 15.1909C24.1738 15.3764 24.4664 15.4747 24.7664 15.4691C25.2162 15.4683 25.6475 15.2892 25.9655 14.9711C26.3187 14.6387 26.4953 14.2487 26.4953 13.8011C26.1629 13.5362 25.6993 13.4038 25.1047 13.4038C24.6717 13.4038 24.3106 13.5082 24.0214 13.717C23.7294 13.9289 23.5844 14.1865 23.5844 14.4957ZM33.3665 10.5558L29.8067 18.7368H28.7062L30.0272 15.8743L27.6865 10.5558H28.8453L30.5371 14.6347H30.5603L32.2057 10.5558H33.3665Z" fill="#5F6368"/>
<path d="M13.8418 12.1488C13.8422 11.824 13.8148 11.4996 13.7597 11.1794H9.26367V13.0156H11.8388C11.7861 13.3089 11.6746 13.5884 11.5109 13.8374C11.3473 14.0864 11.1349 14.2997 10.8866 14.4644V15.6563H12.4235C13.3234 14.8266 13.8418 13.5996 13.8418 12.1488Z" fill="#4285F4"/>
<path d="M9.26358 16.8079C10.5502 16.8079 11.6334 16.3854 12.4234 15.657L10.8865 14.4651C10.4588 14.7552 9.90786 14.9207 9.26358 14.9207C8.02004 14.9207 6.96456 14.0824 6.58713 12.9528H5.00391V14.1811C5.40072 14.9707 6.00918 15.6345 6.76137 16.0983C7.51356 16.5622 8.37987 16.8078 9.26358 16.8079Z" fill="#34A853"/>
<path d="M6.58698 12.9529C6.38744 12.3609 6.38744 11.7199 6.58698 11.128V9.89966H5.00375C4.66994 10.5639 4.49609 11.297 4.49609 12.0404C4.49609 12.7838 4.66994 13.5169 5.00375 14.1812L6.58698 12.9529Z" fill="#FBBC04"/>
<path d="M9.26358 9.16005C9.94348 9.14894 10.6004 9.40583 11.0925 9.87518L12.4532 8.51445C11.5904 7.70401 10.4473 7.25907 9.26358 7.2729C8.37987 7.27294 7.51356 7.51859 6.76137 7.98244C6.00918 8.44629 5.40072 9.11007 5.00391 9.89968L6.58713 11.128C6.96456 9.99834 8.02004 9.16005 9.26358 9.16005Z" fill="#EA4335"/>
</svg>
