<svg width="32" height="24" viewBox="0 0 32 24" fill="none" xmlns="http://www.w3.org/2000/svg">
<g clip-path="url(#clip0_1_2676)">
<path d="M30.7708 23.5123V23.5731H30.8275C30.8381 23.5733 30.8486 23.5706 30.8579 23.5653C30.8616 23.5627 30.8646 23.5592 30.8666 23.5552C30.8685 23.5511 30.8695 23.5466 30.8693 23.5421C30.8695 23.5377 30.8685 23.5332 30.8665 23.5293C30.8645 23.5253 30.8616 23.5219 30.8579 23.5194C30.8487 23.5139 30.8382 23.5112 30.8275 23.5117H30.7708V23.5123ZM30.8281 23.4693C30.8524 23.4678 30.8765 23.4748 30.8962 23.489C30.9041 23.4955 30.9104 23.5037 30.9145 23.5131C30.9187 23.5224 30.9206 23.5326 30.9201 23.5428C30.9204 23.5516 30.9189 23.5604 30.9156 23.5686C30.9123 23.5767 30.9073 23.5841 30.9009 23.5901C30.8857 23.6034 30.8666 23.6113 30.8465 23.6128L30.9225 23.6994H30.864L30.794 23.6134H30.7714V23.6994H30.7224V23.4694H30.8289L30.8281 23.4693ZM30.8129 23.7788C30.8386 23.779 30.864 23.7739 30.8875 23.7636C30.9102 23.7538 30.9309 23.7399 30.9483 23.7224C30.9659 23.705 30.9799 23.6843 30.9896 23.6616C31.0095 23.6134 31.0095 23.5593 30.9896 23.5111C30.9797 23.4884 30.9657 23.4678 30.9483 23.4503C30.9309 23.4328 30.9102 23.4188 30.8875 23.4091C30.8639 23.3993 30.8385 23.3945 30.8129 23.3948C30.7869 23.3945 30.761 23.3994 30.7369 23.4091C30.7137 23.4186 30.6926 23.4326 30.6747 23.4503C30.6478 23.4778 30.6296 23.5127 30.6224 23.5506C30.6152 23.5884 30.6192 23.6276 30.6341 23.6631C30.6434 23.6859 30.6572 23.7066 30.6747 23.7239C30.6926 23.7415 30.7137 23.7555 30.7369 23.7651C30.7609 23.7754 30.7868 23.7806 30.8129 23.7803M30.8129 23.3394C30.8797 23.3394 30.9439 23.3656 30.9915 23.4124C31.0145 23.4349 31.0328 23.4617 31.0454 23.4913C31.0583 23.5217 31.065 23.5544 31.065 23.5875C31.065 23.6205 31.0583 23.6532 31.0454 23.6836C31.0325 23.7131 31.0142 23.7398 30.9915 23.7625C30.9682 23.7849 30.9411 23.8029 30.9114 23.8158C30.8803 23.829 30.8467 23.8357 30.8129 23.8355C30.7786 23.8358 30.7447 23.829 30.7132 23.8158C30.6831 23.8032 30.6558 23.7852 30.6324 23.7625C30.6097 23.739 30.5917 23.7113 30.5794 23.681C30.5664 23.6507 30.5597 23.6179 30.5597 23.5849C30.5597 23.5518 30.5664 23.5191 30.5794 23.4887C30.5919 23.4591 30.6102 23.4323 30.6332 23.4098C30.6562 23.3868 30.6837 23.3687 30.7139 23.3566C30.7455 23.3433 30.7794 23.3366 30.8136 23.3368M7.53303 22.4511C7.53303 22.0124 7.82038 21.6521 8.29002 21.6521C8.73884 21.6521 9.04169 21.9969 9.04169 22.4511C9.04169 22.9052 8.73884 23.25 8.29002 23.25C7.82038 23.25 7.53303 22.8897 7.53303 22.4511ZM9.5533 22.4511V21.2028H9.01068V21.5069C8.83857 21.2822 8.57753 21.1413 8.22252 21.1413C7.52315 21.1413 6.9743 21.6898 6.9743 22.4517C6.9743 23.2135 7.52285 23.7621 8.22252 23.7621C8.57737 23.7621 8.83857 23.621 9.01068 23.3964V23.6994H9.55269V22.4511H9.5533ZM27.8877 22.4511C27.8877 22.0124 28.175 21.6521 28.6448 21.6521C29.0941 21.6521 29.3965 21.9969 29.3965 22.4511C29.3965 22.9052 29.0941 23.25 28.6448 23.25C28.1752 23.25 27.8877 22.8897 27.8877 22.4511ZM29.9086 22.4511V20.2009H29.3655V21.5069C29.1934 21.2822 28.9323 21.1413 28.5773 21.1413C27.878 21.1413 27.3291 21.6898 27.3291 22.4517C27.3291 23.2135 27.8777 23.7621 28.5773 23.7621C28.9323 23.7621 29.1934 23.621 29.3655 23.3964V23.6994H29.9086V22.4511ZM16.2879 21.6264C16.6376 21.6264 16.8622 21.8457 16.9195 22.2317H15.6247C15.6827 21.8714 15.9014 21.6264 16.2881 21.6264M16.2989 21.1399C15.5676 21.1399 15.056 21.672 15.056 22.4503C15.056 23.2438 15.5881 23.7607 16.3352 23.7607C16.711 23.7607 17.0552 23.6669 17.3581 23.411L17.0922 23.0089C16.883 23.1761 16.6166 23.2699 16.3662 23.2699C16.0165 23.2699 15.6982 23.108 15.6199 22.6588H17.4727C17.4781 22.5912 17.4835 22.5231 17.4835 22.4502C17.4781 21.6722 16.997 21.1398 16.2986 21.1398M22.8498 22.4502C22.8498 22.0115 23.1372 21.6512 23.6068 21.6512C24.0556 21.6512 24.3585 21.996 24.3585 22.4502C24.3585 22.9043 24.0556 23.2491 23.6068 23.2491C23.1372 23.2491 22.8497 22.8888 22.8497 22.4502M24.8699 22.4502V21.2028H24.3276V21.5069C24.1549 21.2822 23.8945 21.1413 23.5395 21.1413C22.8401 21.1413 22.2912 21.6898 22.2912 22.4517C22.2912 23.2135 22.8398 23.7621 23.5395 23.7621C23.8945 23.7621 24.1549 23.621 24.3276 23.3964V23.6994H24.8701V22.4511L24.8699 22.4502ZM19.7855 22.4502C19.7855 23.2071 20.3125 23.7606 21.1167 23.7606C21.4926 23.7606 21.743 23.6769 22.0138 23.463L21.7532 23.0244C21.5494 23.1708 21.3355 23.2491 21.0994 23.2491C20.6663 23.2438 20.3477 22.9306 20.3477 22.4502C20.3477 21.9697 20.6663 21.6567 21.0994 21.6512C21.3349 21.6512 21.5488 21.7295 21.7532 21.8759L22.0138 21.4373C21.7425 21.2234 21.4921 21.1398 21.1167 21.1398C20.3125 21.1398 19.7855 21.693 19.7855 22.4502ZM26.7807 21.1398C26.4677 21.1398 26.2638 21.2862 26.1229 21.5054V21.2028H25.5851V23.6981H26.1283V22.2993C26.1283 21.8864 26.3058 21.657 26.6605 21.657C26.7766 21.6553 26.8919 21.6766 26.9998 21.7198L27.167 21.2083C27.0469 21.161 26.8903 21.1402 26.7804 21.1402M12.236 21.4013C11.9749 21.2292 11.6152 21.1402 11.2184 21.1402C10.5862 21.1402 10.1792 21.4432 10.1792 21.939C10.1792 22.3459 10.4822 22.5969 11.0402 22.6752L11.2965 22.7117C11.5941 22.7535 11.7346 22.8318 11.7346 22.9727C11.7346 23.1656 11.5369 23.2757 11.1658 23.2757C10.79 23.2757 10.5187 23.1556 10.3358 23.0147L10.0809 23.4378C10.3784 23.657 10.7542 23.7616 11.1612 23.7616C11.8819 23.7616 12.2995 23.4223 12.2995 22.9472C12.2995 22.5085 11.9708 22.2791 11.4278 22.2008L11.172 22.1637C10.9371 22.1333 10.7489 22.086 10.7489 21.9188C10.7489 21.7363 10.9263 21.6266 11.224 21.6266C11.5425 21.6266 11.8509 21.7467 12.002 21.8405L12.2369 21.4019L12.236 21.4013ZM19.2374 21.1407C18.9244 21.1407 18.7205 21.2871 18.5802 21.5063V21.2028H18.0424V23.6981H18.585V22.2993C18.585 21.8864 18.7625 21.657 19.1172 21.657C19.2333 21.6553 19.3486 21.6766 19.4565 21.7198L19.6238 21.2083C19.5036 21.161 19.347 21.1402 19.2371 21.1402M14.607 21.2028H13.7197V20.4459H13.1712V21.2028H12.665V21.6988H13.1712V22.8371C13.1712 23.416 13.3959 23.7609 14.0378 23.7609C14.2733 23.7609 14.5445 23.6879 14.7166 23.5679L14.5599 23.1033C14.3979 23.1971 14.2205 23.2444 14.0794 23.2444C13.8082 23.2444 13.7197 23.0772 13.7197 22.8268V21.6992H14.607V21.2028ZM6.49447 23.6987V22.1327C6.49447 21.543 6.11864 21.1461 5.51277 21.1408C5.19425 21.1355 4.8657 21.2346 4.63567 21.5848C4.46357 21.3081 4.19233 21.1408 3.81102 21.1408C3.5445 21.1408 3.28407 21.2191 3.08018 21.5113V21.2028H2.53711V23.6981H3.08444V22.3145C3.08444 21.8814 3.32466 21.6512 3.69563 21.6512C4.05596 21.6512 4.23825 21.8861 4.23825 22.3091V23.6978H4.7868V22.3142C4.7868 21.8811 5.0372 21.6509 5.39737 21.6509C5.76789 21.6509 5.94471 21.8858 5.94471 22.3088V23.6975L6.49447 23.6987Z" fill="#231F20"/>
<path d="M31.081 15.3985V15.0336H30.986L30.8761 15.284L30.7668 15.0336H30.6714V15.3985H30.7389V15.1236L30.8417 15.3608H30.9117L31.0144 15.123V15.3985H31.0813H31.081ZM30.4782 15.3985V15.0961H30.5998V15.0345H30.2891V15.0961H30.4107V15.3985H30.4776H30.4782Z" fill="#F79410"/>
<path d="M20.2816 16.9631H12.0586V2.18518H20.2818L20.2816 16.9631Z" fill="#FF5F00"/>
<path d="M12.5785 9.57461C12.5785 6.5769 13.9821 3.90653 16.1678 2.18563C14.5133 0.881071 12.467 0.173045 10.3601 0.176158C5.17005 0.176158 0.962891 4.38392 0.962891 9.57461C0.962891 14.7653 5.17005 18.9731 10.3601 18.9731C12.4671 18.9762 14.5134 18.2682 16.1679 16.9636C13.9824 15.243 12.5785 12.5725 12.5785 9.57461Z" fill="#EB001B"/>
<path d="M31.3738 9.57461C31.3738 14.7653 27.1666 18.9731 21.9765 18.9731C19.8694 18.9761 17.8228 18.2681 16.168 16.9636C18.3543 15.2427 19.7579 12.5725 19.7579 9.57461C19.7579 6.57675 18.3543 3.90653 16.168 2.18563C17.8227 0.88111 19.8693 0.173099 21.9764 0.176157C27.1665 0.176157 31.3736 4.38392 31.3736 9.57461" fill="#F79E1B"/>
</g>
<defs>
<clipPath id="clip0_1_2676">
<rect width="30.4073" height="23.6569" fill="white" transform="translate(0.962891 0.176147)"/>
</clipPath>
</defs>
</svg>
