<svg width="328" height="453" viewBox="0 0 328 453" fill="none" xmlns="http://www.w3.org/2000/svg">
<rect width="328" height="453" rx="4" fill="#FAFAFA"/>
<path d="M189.417 209.274C189.413 213.009 189.384 216.184 189.172 218.789C188.926 221.812 188.421 224.338 187.292 226.436C186.793 227.361 186.181 228.189 185.435 228.935C183.32 231.051 180.624 232.009 177.209 232.468C173.871 232.917 169.594 232.917 164.136 232.917H163.865C158.407 232.917 154.13 232.917 150.793 232.468C147.377 232.009 144.681 231.051 142.566 228.935C140.69 227.059 139.722 224.725 139.207 221.829C138.701 218.984 138.608 215.445 138.589 211.05C138.584 209.932 138.584 208.75 138.584 207.503V207.365C138.584 201.907 138.584 197.629 139.033 194.292C139.492 190.876 140.45 188.181 142.566 186.065C144.681 183.95 147.377 182.991 150.793 182.532C153.761 182.133 157.579 182.089 162.227 182.084C163.206 182.083 164.001 182.877 164.001 183.857C164.001 184.836 163.206 185.63 162.226 185.631C157.513 185.636 154.006 185.679 151.265 186.047C148.243 186.453 146.42 187.226 145.074 188.573C143.727 189.92 142.954 191.742 142.547 194.765C142.134 197.838 142.13 201.877 142.13 207.5C142.13 208.187 142.13 208.851 142.131 209.494L144.498 207.423C146.653 205.538 149.9 205.646 151.924 207.67L162.067 217.812C163.692 219.437 166.249 219.659 168.129 218.338L168.835 217.842C171.54 215.941 175.2 216.161 177.658 218.373L184.35 224.396C185.024 222.982 185.424 221.123 185.637 218.501C185.839 216.03 185.866 213.03 185.87 209.274C185.871 208.295 186.665 207.5 187.644 207.5C188.623 207.5 189.418 208.295 189.417 209.274Z" fill="#E0E0E0"/>
<path fill-rule="evenodd" clip-rule="evenodd" d="M177.98 204.958C172.588 204.958 169.892 204.958 168.217 203.284C166.542 201.609 166.542 198.913 166.542 193.521C166.542 188.129 166.542 185.433 168.217 183.758C169.892 182.083 172.588 182.083 177.98 182.083C183.372 182.083 186.067 182.083 187.742 183.758C189.417 185.433 189.417 188.129 189.417 193.521C189.417 198.913 189.417 201.609 187.742 203.284C186.067 204.958 183.372 204.958 177.98 204.958ZM174.244 187.09C173.5 186.345 172.293 186.345 171.549 187.09C170.804 187.834 170.804 189.041 171.549 189.786L175.284 193.521L171.549 197.256C170.804 198.001 170.804 199.208 171.549 199.952C172.293 200.697 173.5 200.697 174.244 199.952L177.98 196.217L181.715 199.952C182.46 200.697 183.667 200.697 184.411 199.952C185.156 199.208 185.156 198.001 184.411 197.256L180.676 193.521L184.411 189.786C185.156 189.041 185.156 187.834 184.411 187.09C183.667 186.345 182.46 186.345 181.715 187.09L177.98 190.825L174.244 187.09Z" fill="#E0E0E0"/>
<path d="M115.109 273H114.055V261.727H115.109L121.719 271.141H121.773V261.727H122.828V273H121.797L115.164 263.578H115.109V273ZM129.609 261.547C132.75 261.547 134.734 263.797 134.734 267.367C134.734 270.938 132.758 273.18 129.609 273.18C126.469 273.18 124.492 270.938 124.492 267.367C124.492 263.797 126.469 261.547 129.609 261.547ZM129.609 262.539C127.141 262.539 125.586 264.406 125.586 267.367C125.586 270.32 127.141 272.188 129.609 272.188C132.078 272.188 133.641 270.32 133.641 267.367C133.641 264.406 132.078 262.539 129.609 262.539ZM140.742 273H139.68V261.727H140.742V273ZM153.711 273H152.711V263.75H152.664L148.742 272.945H147.812L143.898 263.75H143.852V273H142.852V261.727H144.078L148.258 271.594H148.305L152.477 261.727H153.711V273ZM163.312 273L162.062 269.547H157.328L156.078 273H154.945L159.164 261.727H160.227L164.438 273H163.312ZM159.672 263.047L157.648 268.625H161.742L159.719 263.047H159.672ZM174.609 268.422C174.609 271.398 172.859 273.18 169.93 273.18C166.875 273.18 164.867 270.852 164.867 267.297C164.867 263.805 166.852 261.547 169.93 261.547C172.297 261.547 174.117 262.961 174.539 265.117H173.43C172.969 263.508 171.648 262.539 169.93 262.539C167.484 262.539 165.961 264.359 165.961 267.297C165.961 270.273 167.516 272.188 169.93 272.188C172.109 272.188 173.547 270.797 173.547 268.672V268.273H170.047V267.336H174.609V268.422ZM183.141 272.031V273H176.336V261.727H183.141V262.695H177.398V266.75H182.852V267.703H177.398V272.031H183.141ZM192.484 273H191.414V268.125L187.375 261.727H188.594L191.93 267.078H191.969L195.305 261.727H196.523L192.484 268.125V273ZM204.578 272.031V273H197.773V261.727H204.578V262.695H198.836V266.75H204.289V267.703H198.836V272.031H204.578ZM210.43 273H209.359V262.695H205.641V261.727H214.156V262.695H210.43V273Z" fill="#302A18"/>
</svg>
