<svg width="21" height="21" viewBox="0 0 21 21" fill="none" xmlns="http://www.w3.org/2000/svg">
<path d="M18 5.48332C15.225 5.20832 12.4333 5.06665 9.65 5.06665C8 5.06665 6.35 5.14998 4.7 5.31665L3 5.48332" stroke="#EA4335" stroke-width="1.2" stroke-linecap="round" stroke-linejoin="round"/>
<path d="M7.58398 4.64163L7.76732 3.54996C7.90065 2.75829 8.00065 2.16663 9.40898 2.16663H11.5923C13.0007 2.16663 13.109 2.79163 13.234 3.55829L13.4173 4.64163" stroke="#EA4335" stroke-width="1.2" stroke-linecap="round" stroke-linejoin="round"/>
<path d="M16.2077 8.1167L15.666 16.5084C15.5743 17.8167 15.4993 18.8334 13.1743 18.8334H7.82435C5.49935 18.8334 5.42435 17.8167 5.33268 16.5084L4.79102 8.1167" stroke="#EA4335" stroke-width="1.2" stroke-linecap="round" stroke-linejoin="round"/>
<path d="M9.10742 14.25H11.8824" stroke="#EA4335" stroke-width="1.2" stroke-linecap="round" stroke-linejoin="round"/>
<path d="M8.41602 10.9166H12.5827" stroke="#EA4335" stroke-width="1.2" stroke-linecap="round" stroke-linejoin="round"/>
</svg>
