<svg width="39" height="38" viewBox="0 0 39 38" fill="none" xmlns="http://www.w3.org/2000/svg">
<g clip-path="url(#clip0_1_2671)">
<path d="M17.705 24.0208H15.0949L16.7262 13.9953H19.3366L17.705 24.0208ZM12.899 13.9953L10.4106 20.8909L10.1162 19.406L10.1164 19.4066L9.23816 14.898C9.23816 14.898 9.13196 13.9953 7.99999 13.9953H3.88616L3.83789 14.1651C3.83789 14.1651 5.09591 14.4268 6.56819 15.311L8.83589 24.0211H11.5555L15.7082 13.9953H12.899ZM33.4293 24.0208H35.826L33.7363 13.995H31.6381C30.6692 13.995 30.4332 14.7422 30.4332 14.7422L26.5404 24.0208H29.2613L29.8054 22.5316H33.1236L33.4293 24.0208ZM30.5571 20.4744L31.9286 16.7227L32.7001 20.4744H30.5571ZM26.7444 16.4062L27.1169 14.2533C27.1169 14.2533 25.9675 13.8162 24.7693 13.8162C23.474 13.8162 20.398 14.3823 20.398 17.1351C20.398 19.7252 24.0082 19.7573 24.0082 21.1178C24.0082 22.4783 20.77 22.2345 19.7013 21.3766L19.3133 23.6277C19.3133 23.6277 20.4788 24.1938 22.2595 24.1938C24.0407 24.1938 26.7278 23.2715 26.7278 20.7614C26.7278 18.1547 23.0852 17.912 23.0852 16.7787C23.0854 15.6451 25.6275 15.7907 26.7444 16.4062Z" fill="#2566AF"/>
<path d="M10.1164 19.4063L9.23816 14.8977C9.23816 14.8977 9.13196 13.995 7.99999 13.995H3.88616L3.83789 14.1648C3.83789 14.1648 5.81515 14.5745 7.7117 16.1098C9.5251 17.5773 10.1164 19.4063 10.1164 19.4063Z" fill="#E6A540"/>
</g>
<defs>
<clipPath id="clip0_1_2671">
<rect width="38.0092" height="38.0092" fill="white" transform="translate(0.826172)"/>
</clipPath>
</defs>
</svg>
